# xmcd
#
# Track frame offsets:
#	187
#	12382
#	28102
#	43247
#	56827
#	70410
#	85995
#	104897
#	116910
#	133632
#	149082
#
# Disc length: 2195 seconds
#
# Revision: 1
# Processed by: cddbd v1.4PL0 Copyright (c) Steve Scherf et al.
# Submitted via: EasyCDDAExtractor 6.0.0.1
#
DISCID=b308910b
DTITLE=McKenzie River Band - Room for Two
DYEAR=1900
DGENRE=
TTITLE0=Drivin' Me Crazy
TTITLE1=Two Places at Once
TTITLE2=Love On Her Mind
TTITLE3=Two of the Lucky Ones
TTITLE4=We Stayed In Touch
TTITLE5=Hot Pink
TTITLE6=Room for Two
TTITLE7=Let it Go
TTITLE8=We're Not In Kansas Anymore
TTITLE9=Dear Mom
TTITLE10=Love Her Like You Mean It
EXTD=
EXTT0=
EXTT1=
EXTT2=
EXTT3=
EXTT4=
EXTT5=
EXTT6=
EXTT7=
EXTT8=
EXTT9=
EXTT10=
PLAYORDER=
